<mxfile host="app.diagrams.net" modified="2024-05-07T14:10:04.101Z" agent="Mozilla/5.0 (Windows NT 10.0; Win64; x64) AppleWebKit/537.36 (KHTML, like Gecko) Chrome/124.0.0.0 Safari/537.36 Edg/124.0.0.0" etag="xWGDnKXEmp92V3JH_S1l" version="24.3.1" type="device">
  <diagram id="C5RBs43oDa-KdzZeNtuy" name="Page-1">
    <mxGraphModel dx="715" dy="459" grid="1" gridSize="10" guides="1" tooltips="1" connect="1" arrows="1" fold="1" page="1" pageScale="1" pageWidth="827" pageHeight="1169" math="0" shadow="0">
      <root>
        <mxCell id="WIyWlLk6GJQsqaUBKTNV-0" />
        <mxCell id="WIyWlLk6GJQsqaUBKTNV-1" parent="WIyWlLk6GJQsqaUBKTNV-0" />
        <mxCell id="EXOwGlUWqI-FPwdm9z7F-2" value="" style="edgeStyle=orthogonalEdgeStyle;rounded=0;orthogonalLoop=1;jettySize=auto;html=1;" edge="1" parent="WIyWlLk6GJQsqaUBKTNV-1" source="EXOwGlUWqI-FPwdm9z7F-0">
          <mxGeometry relative="1" as="geometry">
            <mxPoint x="179.9999999999999" y="150" as="targetPoint" />
          </mxGeometry>
        </mxCell>
        <mxCell id="EXOwGlUWqI-FPwdm9z7F-0" value="Начало" style="strokeWidth=2;html=1;shape=mxgraph.flowchart.terminator;whiteSpace=wrap;" vertex="1" parent="WIyWlLk6GJQsqaUBKTNV-1">
          <mxGeometry x="95" y="60" width="170" height="60" as="geometry" />
        </mxCell>
        <mxCell id="EXOwGlUWqI-FPwdm9z7F-11" value="" style="edgeStyle=orthogonalEdgeStyle;rounded=0;orthogonalLoop=1;jettySize=auto;html=1;" edge="1" parent="WIyWlLk6GJQsqaUBKTNV-1" source="EXOwGlUWqI-FPwdm9z7F-5">
          <mxGeometry relative="1" as="geometry">
            <mxPoint x="179.9999999999999" y="230" as="targetPoint" />
          </mxGeometry>
        </mxCell>
        <mxCell id="EXOwGlUWqI-FPwdm9z7F-5" value="ввод precentOption" style="shape=parallelogram;perimeter=parallelogramPerimeter;whiteSpace=wrap;html=1;fixedSize=1;" vertex="1" parent="WIyWlLk6GJQsqaUBKTNV-1">
          <mxGeometry x="95" y="150" width="170" height="60" as="geometry" />
        </mxCell>
        <mxCell id="EXOwGlUWqI-FPwdm9z7F-12" value="" style="edgeStyle=orthogonalEdgeStyle;rounded=0;orthogonalLoop=1;jettySize=auto;html=1;" edge="1" parent="WIyWlLk6GJQsqaUBKTNV-1" source="EXOwGlUWqI-FPwdm9z7F-6" target="EXOwGlUWqI-FPwdm9z7F-8">
          <mxGeometry relative="1" as="geometry" />
        </mxCell>
        <mxCell id="EXOwGlUWqI-FPwdm9z7F-6" value="ввод Days" style="shape=parallelogram;perimeter=parallelogramPerimeter;whiteSpace=wrap;html=1;fixedSize=1;" vertex="1" parent="WIyWlLk6GJQsqaUBKTNV-1">
          <mxGeometry x="95" y="230" width="170" height="60" as="geometry" />
        </mxCell>
        <mxCell id="EXOwGlUWqI-FPwdm9z7F-25" value="" style="edgeStyle=orthogonalEdgeStyle;rounded=0;orthogonalLoop=1;jettySize=auto;html=1;" edge="1" parent="WIyWlLk6GJQsqaUBKTNV-1" source="EXOwGlUWqI-FPwdm9z7F-8" target="EXOwGlUWqI-FPwdm9z7F-22">
          <mxGeometry relative="1" as="geometry" />
        </mxCell>
        <mxCell id="EXOwGlUWqI-FPwdm9z7F-8" value="ввод precent" style="shape=parallelogram;perimeter=parallelogramPerimeter;whiteSpace=wrap;html=1;fixedSize=1;" vertex="1" parent="WIyWlLk6GJQsqaUBKTNV-1">
          <mxGeometry x="95" y="310" width="170" height="60" as="geometry" />
        </mxCell>
        <mxCell id="EXOwGlUWqI-FPwdm9z7F-14" value="" style="endArrow=none;dashed=1;html=1;rounded=0;exitX=1;exitY=0.5;exitDx=0;exitDy=0;" edge="1" parent="WIyWlLk6GJQsqaUBKTNV-1" source="EXOwGlUWqI-FPwdm9z7F-5" target="EXOwGlUWqI-FPwdm9z7F-21">
          <mxGeometry width="50" height="50" relative="1" as="geometry">
            <mxPoint x="260" y="300" as="sourcePoint" />
            <mxPoint x="320" y="180" as="targetPoint" />
          </mxGeometry>
        </mxCell>
        <mxCell id="EXOwGlUWqI-FPwdm9z7F-15" value="" style="endArrow=none;dashed=1;html=1;rounded=0;exitX=1;exitY=0.5;exitDx=0;exitDy=0;" edge="1" parent="WIyWlLk6GJQsqaUBKTNV-1" source="EXOwGlUWqI-FPwdm9z7F-6" target="EXOwGlUWqI-FPwdm9z7F-20">
          <mxGeometry width="50" height="50" relative="1" as="geometry">
            <mxPoint x="260" y="300" as="sourcePoint" />
            <mxPoint x="320" y="260" as="targetPoint" />
          </mxGeometry>
        </mxCell>
        <mxCell id="EXOwGlUWqI-FPwdm9z7F-16" value="" style="endArrow=none;dashed=1;html=1;rounded=0;exitX=1;exitY=0.5;exitDx=0;exitDy=0;" edge="1" parent="WIyWlLk6GJQsqaUBKTNV-1" source="EXOwGlUWqI-FPwdm9z7F-8" target="EXOwGlUWqI-FPwdm9z7F-17">
          <mxGeometry width="50" height="50" relative="1" as="geometry">
            <mxPoint x="260" y="300" as="sourcePoint" />
            <mxPoint x="320" y="340" as="targetPoint" />
          </mxGeometry>
        </mxCell>
        <mxCell id="EXOwGlUWqI-FPwdm9z7F-17" value="% годовых" style="strokeWidth=2;html=1;shape=mxgraph.flowchart.annotation_1;align=left;pointerEvents=1;" vertex="1" parent="WIyWlLk6GJQsqaUBKTNV-1">
          <mxGeometry x="300" y="300" width="15" height="80" as="geometry" />
        </mxCell>
        <mxCell id="EXOwGlUWqI-FPwdm9z7F-20" value="Количество дней вклада" style="strokeWidth=2;html=1;shape=mxgraph.flowchart.annotation_1;align=left;pointerEvents=1;" vertex="1" parent="WIyWlLk6GJQsqaUBKTNV-1">
          <mxGeometry x="300" y="225" width="15" height="70" as="geometry" />
        </mxCell>
        <mxCell id="EXOwGlUWqI-FPwdm9z7F-21" value="Вид процентов" style="strokeWidth=2;html=1;shape=mxgraph.flowchart.annotation_1;align=left;pointerEvents=1;" vertex="1" parent="WIyWlLk6GJQsqaUBKTNV-1">
          <mxGeometry x="300" y="145" width="15" height="70" as="geometry" />
        </mxCell>
        <mxCell id="EXOwGlUWqI-FPwdm9z7F-27" value="" style="edgeStyle=orthogonalEdgeStyle;rounded=0;orthogonalLoop=1;jettySize=auto;html=1;" edge="1" parent="WIyWlLk6GJQsqaUBKTNV-1" source="EXOwGlUWqI-FPwdm9z7F-22" target="EXOwGlUWqI-FPwdm9z7F-26">
          <mxGeometry relative="1" as="geometry" />
        </mxCell>
        <mxCell id="EXOwGlUWqI-FPwdm9z7F-22" value="ввод startSum" style="shape=parallelogram;perimeter=parallelogramPerimeter;whiteSpace=wrap;html=1;fixedSize=1;" vertex="1" parent="WIyWlLk6GJQsqaUBKTNV-1">
          <mxGeometry x="95" y="400" width="170" height="60" as="geometry" />
        </mxCell>
        <mxCell id="EXOwGlUWqI-FPwdm9z7F-23" value="" style="endArrow=none;dashed=1;html=1;rounded=0;exitX=1;exitY=0.5;exitDx=0;exitDy=0;" edge="1" parent="WIyWlLk6GJQsqaUBKTNV-1" source="EXOwGlUWqI-FPwdm9z7F-22" target="EXOwGlUWqI-FPwdm9z7F-24">
          <mxGeometry width="50" height="50" relative="1" as="geometry">
            <mxPoint x="260" y="390" as="sourcePoint" />
            <mxPoint x="320" y="430" as="targetPoint" />
          </mxGeometry>
        </mxCell>
        <mxCell id="EXOwGlUWqI-FPwdm9z7F-24" value="Вкладываемая сумма" style="strokeWidth=2;html=1;shape=mxgraph.flowchart.annotation_1;align=left;pointerEvents=1;" vertex="1" parent="WIyWlLk6GJQsqaUBKTNV-1">
          <mxGeometry x="300" y="390" width="15" height="80" as="geometry" />
        </mxCell>
        <mxCell id="EXOwGlUWqI-FPwdm9z7F-28" style="edgeStyle=orthogonalEdgeStyle;rounded=0;orthogonalLoop=1;jettySize=auto;html=1;" edge="1" parent="WIyWlLk6GJQsqaUBKTNV-1" source="EXOwGlUWqI-FPwdm9z7F-26">
          <mxGeometry relative="1" as="geometry">
            <mxPoint x="180" y="480" as="targetPoint" />
            <Array as="points">
              <mxPoint x="280" y="530" />
              <mxPoint x="280" y="480" />
            </Array>
          </mxGeometry>
        </mxCell>
        <mxCell id="EXOwGlUWqI-FPwdm9z7F-30" value="" style="edgeStyle=orthogonalEdgeStyle;rounded=0;orthogonalLoop=1;jettySize=auto;html=1;" edge="1" parent="WIyWlLk6GJQsqaUBKTNV-1" source="EXOwGlUWqI-FPwdm9z7F-26" target="EXOwGlUWqI-FPwdm9z7F-29">
          <mxGeometry relative="1" as="geometry" />
        </mxCell>
        <mxCell id="EXOwGlUWqI-FPwdm9z7F-26" value="&lt;font style=&quot;font-size: 10px;&quot;&gt;Кнопка ButtonCount&lt;/font&gt;&lt;div style=&quot;font-size: 10px;&quot;&gt;&lt;font style=&quot;font-size: 10px;&quot;&gt;нажата?&lt;/font&gt;&lt;/div&gt;" style="rhombus;whiteSpace=wrap;html=1;" vertex="1" parent="WIyWlLk6GJQsqaUBKTNV-1">
          <mxGeometry x="95" y="500" width="170" height="60" as="geometry" />
        </mxCell>
        <mxCell id="EXOwGlUWqI-FPwdm9z7F-32" value="" style="edgeStyle=orthogonalEdgeStyle;rounded=0;orthogonalLoop=1;jettySize=auto;html=1;" edge="1" parent="WIyWlLk6GJQsqaUBKTNV-1" source="EXOwGlUWqI-FPwdm9z7F-29" target="EXOwGlUWqI-FPwdm9z7F-31">
          <mxGeometry relative="1" as="geometry" />
        </mxCell>
        <mxCell id="EXOwGlUWqI-FPwdm9z7F-29" value="ButtonCountClick" style="shape=process;whiteSpace=wrap;html=1;backgroundOutline=1;" vertex="1" parent="WIyWlLk6GJQsqaUBKTNV-1">
          <mxGeometry x="95" y="585" width="170" height="60" as="geometry" />
        </mxCell>
        <mxCell id="EXOwGlUWqI-FPwdm9z7F-31" value="Конец" style="strokeWidth=2;html=1;shape=mxgraph.flowchart.terminator;whiteSpace=wrap;" vertex="1" parent="WIyWlLk6GJQsqaUBKTNV-1">
          <mxGeometry x="95" y="680" width="170" height="60" as="geometry" />
        </mxCell>
      </root>
    </mxGraphModel>
  </diagram>
</mxfile>
